<svg width="178" height="178" viewBox="0 0 178 178" fill="none" xmlns="http://www.w3.org/2000/svg">
<path d="M88.9952 98.4558C94.2112 98.4558 98.4397 94.2274 98.4397 89.0113C98.4397 83.7953 94.2112 79.5669 88.9952 79.5669C83.7792 79.5669 79.5508 83.7953 79.5508 89.0113C79.5508 94.2274 83.7792 98.4558 88.9952 98.4558Z" stroke="#AB3356" stroke-width="7" stroke-linecap="round" stroke-linejoin="round"/>
<path d="M88.9947 41.79C79.655 41.79 70.5251 44.5596 62.7594 49.7484C54.9938 54.9372 48.9412 62.3123 45.3671 70.9411C41.7929 79.5698 40.8578 89.0646 42.6798 98.2248C44.5019 107.385 48.9994 115.799 55.6035 122.403C62.2077 129.007 70.6219 133.505 79.7821 135.327C88.9423 137.149 98.4371 136.214 107.066 132.64C115.695 129.066 123.07 123.013 128.258 115.247C133.447 107.482 136.217 98.3519 136.217 89.0122" stroke="#340E33" stroke-width="7" stroke-linecap="round" stroke-linejoin="round"/>
<path d="M98.4765 4.52999C80.9672 2.56566 63.2801 6.09096 47.8619 14.6183C32.4437 23.1456 20.0564 36.2534 12.4135 52.1286C4.77065 68.0038 2.24993 85.8618 5.20005 103.232C8.15018 120.603 16.4253 136.627 28.8808 149.089C41.3364 161.551 57.3566 169.834 74.7256 172.793C92.0945 175.752 109.954 173.24 125.833 165.605C141.712 157.97 154.826 145.589 163.361 130.176C171.896 114.762 175.43 97.0764 173.475 79.566" stroke="#340E33" stroke-width="7" stroke-linecap="round" stroke-linejoin="round"/>
<path d="M117.327 60.6783L88.9941 89.0117M117.327 32.345V60.6783H145.661L173.994 32.345H145.661V4.01172L117.327 32.345Z" stroke="#AB3356" stroke-width="7" stroke-linecap="round" stroke-linejoin="round"/>
</svg>
