<svg width="16" height="18" viewBox="0 0 16 18" fill="none" xmlns="http://www.w3.org/2000/svg">
<path d="M14.1137 14.4225L16 16.3172L15.2488 17.0683L13.3542 15.1821L11.4596 17.0767L10.7084 16.3172L12.603 14.4225L10.7084 12.5279L11.4596 11.7767L13.3542 13.6714L15.2488 11.7767L16 12.5363L14.1137 14.4225ZM3.20501 5.34168H2.13667V4.27334H3.20501V5.34168ZM3.20501 7.47835H2.13667V6.41002H3.20501V7.47835ZM2.13667 8.54669H3.20501V9.61502H2.13667V8.54669ZM1.06834 16.025H9.61502V17.0934H0V0H9.30621L13.8884 4.58216V10.6834H12.82V5.34168H8.54669V1.06834H1.06834V16.025ZM9.61502 4.27334H12.0605L9.61502 1.82786V4.27334ZM7.47835 5.34168H4.27334V4.27334H7.47835V5.34168ZM7.47835 7.47835H4.27334V6.41002H7.47835V7.47835ZM4.27334 8.54669H7.47835V9.61502H4.27334V8.54669Z" fill="#011B33" fill-opacity="0.7"/>
</svg>
